<?xml version="1.0" encoding="utf-8"?>
<!-- Generator: Adobe Illustrator 21.0.2, SVG Export Plug-In . SVG Version: 6.00 Build 0)  -->
<svg version="1.1" id="Layer_1" xmlns:x="&ns_extend;" xmlns:i="&ns_ai;" xmlns:graph="&ns_graphs;"
	 xmlns="http://www.w3.org/2000/svg" xmlns:xlink="http://www.w3.org/1999/xlink" x="0px" y="0px" viewBox="0 0 50 50"
	 style="enable-background:new 0 0 50 50;" xml:space="preserve">
<style type="text/css">
	.st0{fill:#444545;}
	.st1{fill:#B3B4B4;}
	.st2{fill:#FFFFFF;}
	.st3{opacity:3.000000e-02;fill:#010101;enable-background:new    ;}
</style>
<metadata>
	<sfw  xmlns="&ns_sfw;">
		<slices></slices>
		<sliceSourceBounds  bottomLeftOrigin="true" height="45.6" width="40.9" x="4.5" y="-47.8"></sliceSourceBounds>
	</sfw>
</metadata>
<g>
	<g>
		<path class="st0" d="M25,47.7c-0.9,0-1.8-0.2-2.6-0.7L7.3,38.3c-1.6-0.9-2.6-2.7-2.6-4.6V16.3c0-1.9,1-3.6,2.6-4.6L22.4,3
			c0.8-0.5,1.7-0.7,2.6-0.7s1.8,0.2,2.6,0.7l15.1,8.7c1.6,0.9,2.6,2.7,2.6,4.6v17.4c0,1.9-1,3.6-2.6,4.6L27.6,47
			C26.8,47.5,25.9,47.7,25,47.7z"/>
		<path class="st1" d="M25,2.4c0.9,0,1.8,0.2,2.6,0.7l15.1,8.7c1.6,0.9,2.6,2.6,2.6,4.5v17.4c0,1.8-1,3.6-2.6,4.5l-15.1,8.7
			c-0.8,0.5-1.7,0.7-2.6,0.7c-0.9,0-1.8-0.2-2.6-0.7L7.3,38.2c-1.6-0.9-2.6-2.6-2.6-4.5V16.3c0-1.8,1-3.6,2.6-4.5l15.1-8.7
			C23.2,2.6,24.1,2.4,25,2.4 M25,2.2c-0.9,0-1.9,0.2-2.7,0.7L7.2,11.6c-1.7,1-2.7,2.7-2.7,4.7v17.4c0,1.9,1,3.7,2.7,4.7l15.1,8.7
			c0.8,0.5,1.8,0.7,2.7,0.7c0.9,0,1.9-0.2,2.7-0.7l15.1-8.7c1.7-1,2.7-2.7,2.7-4.7V16.3c0-1.9-1-3.7-2.7-4.7L27.7,2.9
			C26.9,2.4,25.9,2.2,25,2.2L25,2.2z"/>
	</g>
	<g>
		<path class="st2" d="M13.3,27l3-2l-3-2V27z M33.6,25l3,2V23L33.6,25z M14.3,29.3l9.5,6.3V30l-5.2-3.5L14.3,29.3z M26.2,35.6
			l9.5-6.3l-4.2-2.8L26.2,30V35.6z M25,27.9l4.3-2.9L25,22.1L20.7,25L25,27.9z M18.5,23.5l5.2-3.5v-5.6l-9.5,6.3L18.5,23.5z
			 M31.5,23.5l4.2-2.8l-9.5-6.3V20L31.5,23.5z M39.1,20.7v8.6c0,0.4-0.2,0.8-0.5,1l-12.9,8.6c-0.2,0.1-0.4,0.2-0.7,0.2
			s-0.5-0.1-0.7-0.2l-12.9-8.6c-0.4-0.2-0.5-0.6-0.5-1v-8.6c0-0.4,0.2-0.8,0.5-1l12.9-8.6c0.2-0.1,0.4-0.2,0.7-0.2s0.5,0.1,0.7,0.2
			l12.9,8.6C38.9,19.9,39.1,20.3,39.1,20.7z"/>
	</g>
	<path class="st3" d="M41.4,13.8l-15-8.7c-0.4-0.2-0.9-0.4-1.3-0.4v40c0.5,0,0.9-0.1,1.3-0.4l15-8.7c0.8-0.5,1.3-1.3,1.3-2.3V16
		C42.7,15.1,42.2,14.2,41.4,13.8z"/>
</g>
</svg>
