<?xml version="1.0" encoding="utf-8"?>
<!-- Generator: Adobe Illustrator 21.0.2, SVG Export Plug-In . SVG Version: 6.00 Build 0)  -->
<svg version="1.1" id="Layer_1" xmlns:x="&ns_extend;" xmlns:i="&ns_ai;" xmlns:graph="&ns_graphs;"
	 xmlns="http://www.w3.org/2000/svg" xmlns:xlink="http://www.w3.org/1999/xlink" x="0px" y="0px" viewBox="0 0 50 50"
	 style="enable-background:new 0 0 50 50;" xml:space="preserve">
<style type="text/css">
	.st0{fill:#444545;}
	.st1{fill:#B3B4B4;}
	.st2{opacity:3.000000e-02;fill:#010101;enable-background:new    ;}
	.st3{fill:#FFFFFF;}
</style>
<metadata>
	<sfw  xmlns="&ns_sfw;">
		<slices></slices>
		<sliceSourceBounds  bottomLeftOrigin="true" height="45.6" width="40.9" x="4.5" y="-47.8"></sliceSourceBounds>
	</sfw>
</metadata>
<g>
	<g>
		<path class="st0" d="M25,47.7c-0.9,0-1.8-0.2-2.6-0.7L7.3,38.3c-1.6-0.9-2.6-2.7-2.6-4.6V16.3c0-1.9,1-3.6,2.6-4.6L22.4,3
			c0.8-0.5,1.7-0.7,2.6-0.7s1.8,0.2,2.6,0.7l15.1,8.7c1.6,0.9,2.6,2.7,2.6,4.6v17.4c0,1.9-1,3.6-2.6,4.6L27.6,47
			C26.8,47.5,25.9,47.7,25,47.7z"/>
		<path class="st1" d="M25,2.4c0.9,0,1.8,0.2,2.6,0.7l15.1,8.7c1.6,0.9,2.6,2.6,2.6,4.5v17.4c0,1.8-1,3.6-2.6,4.5l-15.1,8.7
			c-0.8,0.5-1.7,0.7-2.6,0.7c-0.9,0-1.8-0.2-2.6-0.7L7.3,38.2c-1.6-0.9-2.6-2.6-2.6-4.5V16.3c0-1.8,1-3.6,2.6-4.5l15.1-8.7
			C23.2,2.6,24.1,2.4,25,2.4 M25,2.2c-0.9,0-1.9,0.2-2.7,0.7L7.2,11.6c-1.7,1-2.7,2.7-2.7,4.7v17.4c0,1.9,1,3.7,2.7,4.7l15.1,8.7
			c0.8,0.5,1.8,0.7,2.7,0.7c0.9,0,1.9-0.2,2.7-0.7l15.1-8.7c1.7-1,2.7-2.7,2.7-4.7V16.3c0-1.9-1-3.7-2.7-4.7L27.7,2.9
			C26.9,2.4,25.9,2.2,25,2.2L25,2.2z"/>
	</g>
	<path class="st2" d="M41.4,14l-15-8.7C26,5.1,25.5,5,25.1,5v40c0.5,0,0.9-0.1,1.3-0.4l15-8.7c0.8-0.5,1.3-1.3,1.3-2.3V16.3
		C42.7,15.3,42.2,14.5,41.4,14z"/>
	<path id="_x3C_Path_x3E__15_" class="st3" d="M35.2,16.3c-0.4-0.5-0.9-0.9-1.4-1.4c-2.4-2.1-5.5-3.3-8.8-3.3
		c-1.5,0-2.9,0.2-4.2,0.7c-0.7,0.2-1.3,0.5-1.9,0.8c-3.6,1.8-6.3,5.2-7.1,9.3c-0.1,0.6-0.2,1.2-0.2,1.9c0,0.2,0,0.5,0,0.8
		c0,4,1.8,7.6,4.6,10.1c0.5,0.5,1.1,0.9,1.7,1.3c2.1,1.3,4.5,2.1,7.2,2.1c1.7,0,3.4-0.3,4.9-0.9c0.6-0.2,1.2-0.5,1.8-0.9
		c3.4-1.9,5.8-5.3,6.5-9.3c0.1-0.6,0.2-1.3,0.2-1.9c0-0.1,0-0.3,0-0.4C38.4,21.7,37.2,18.6,35.2,16.3z M25,13.5
		c2.9,0,5.6,1.1,7.6,2.9c-1.6,1.7-3.8,3.1-6.3,4.1c-1.3-2.5-2.7-4.7-4.2-6.6C23,13.7,24,13.5,25,13.5z M20.2,14.6
		c1.6,1.9,3,4.2,4.3,6.6c-2.8,0.9-5.9,1.4-9.3,1.4c-0.5,0-1,0-1.5,0C14.5,19,17,16.1,20.2,14.6z M16.8,33.1c-2-2.1-3.3-4.9-3.3-8.1
		c0-0.2,0-0.4,0-0.6c0.6,0,1.2,0,1.8,0c3.7,0,7.1-0.6,10.1-1.6c0.3,0.7,0.7,1.4,1,2.1c-3.3,0.8-6,2.5-7.8,5
		C17.8,31,17.2,32,16.8,33.1z M25,36.6c-2.5,0-4.8-0.8-6.7-2.2c0.4-1.1,0.9-2.2,1.7-3.2c1.7-2.2,4.1-3.7,7-4.4
		c0.7,1.8,1.3,3.7,1.8,5.6c0.3,1.1,0.5,2.1,0.7,3.2C28.2,36.2,26.6,36.6,25,36.6z M31.3,34.7c-0.2-0.9-0.4-1.8-0.6-2.7
		c-0.5-1.9-1.1-3.7-1.7-5.5c0.8-0.1,1.5-0.1,2.3-0.1c1.6,0,3.3,0.2,5.1,0.6C35.8,30.2,33.9,33,31.3,34.7z M31.3,24.5
		c-1.1,0-2.1,0.1-3.1,0.2c-0.3-0.8-0.7-1.6-1.1-2.4c2.7-1.1,5-2.7,6.8-4.5c1.6,2,2.6,4.5,2.6,7.3C34.8,24.7,33,24.5,31.3,24.5z"/>
</g>
</svg>
