<?xml version="1.0" encoding="utf-8"?>
<!-- Generator: Adobe Illustrator 21.0.2, SVG Export Plug-In . SVG Version: 6.00 Build 0)  -->
<svg version="1.1" id="Layer_1" xmlns:x="&ns_extend;" xmlns:i="&ns_ai;" xmlns:graph="&ns_graphs;"
	 xmlns="http://www.w3.org/2000/svg" xmlns:xlink="http://www.w3.org/1999/xlink" x="0px" y="0px" viewBox="0 0 50 50"
	 style="enable-background:new 0 0 50 50;" xml:space="preserve">
<style type="text/css">
	.st0{fill:#444545;}
	.st1{fill:#B3B4B4;}
	.st2{opacity:3.000000e-02;fill:#010101;enable-background:new    ;}
	.st3{fill:#FFFFFF;}
</style>
<metadata>
	<sfw  xmlns="&ns_sfw;">
		<slices></slices>
		<sliceSourceBounds  bottomLeftOrigin="true" height="45.6" width="40.9" x="4.5" y="-47.8"></sliceSourceBounds>
	</sfw>
</metadata>
<g>
	<g>
		<path class="st0" d="M25,47.7c-0.9,0-1.8-0.2-2.6-0.7L7.3,38.3c-1.6-0.9-2.6-2.7-2.6-4.6V16.3c0-1.9,1-3.6,2.6-4.6L22.4,3
			c0.8-0.5,1.7-0.7,2.6-0.7s1.8,0.2,2.6,0.7l15.1,8.7c1.6,0.9,2.6,2.7,2.6,4.6v17.4c0,1.9-1,3.6-2.6,4.6L27.6,47
			C26.8,47.5,25.9,47.7,25,47.7z"/>
		<path class="st1" d="M25,2.4c0.9,0,1.8,0.2,2.6,0.7l15.1,8.7c1.6,0.9,2.6,2.6,2.6,4.5v17.4c0,1.8-1,3.6-2.6,4.5l-15.1,8.7
			c-0.8,0.5-1.7,0.7-2.6,0.7c-0.9,0-1.8-0.2-2.6-0.7L7.3,38.2c-1.6-0.9-2.6-2.6-2.6-4.5V16.3c0-1.8,1-3.6,2.6-4.5l15.1-8.7
			C23.2,2.6,24.1,2.4,25,2.4 M25,2.2c-0.9,0-1.9,0.2-2.7,0.7L7.2,11.6c-1.7,1-2.7,2.7-2.7,4.7v17.4c0,1.9,1,3.7,2.7,4.7l15.1,8.7
			c0.8,0.5,1.8,0.7,2.7,0.7c0.9,0,1.9-0.2,2.7-0.7l15.1-8.7c1.7-1,2.7-2.7,2.7-4.7V16.3c0-1.9-1-3.7-2.7-4.7L27.7,2.9
			C26.9,2.4,25.9,2.2,25,2.2L25,2.2z"/>
	</g>
	<path class="st2" d="M41.4,14l-15-8.7C26,5.1,25.5,5,25.1,5v40c0.5,0,0.9-0.1,1.3-0.4l15-8.7c0.8-0.5,1.3-1.3,1.3-2.3V16.3
		C42.7,15.3,42.2,14.5,41.4,14z"/>
	<g id="XMLID_138_">
		<path id="XMLID_142_" class="st3" d="M36,17.4c-0.3-0.8-0.7-1.4-1.3-2.1c-0.6-0.6-1.3-1-2.1-1.3c-0.7-0.3-1.6-0.5-2.8-0.5
			c-1.2-0.1-1.6-0.1-4.8-0.1s-3.6,0-4.8,0.1c-1.2,0.1-2.1,0.3-2.8,0.5c-0.8,0.3-1.4,0.7-2.1,1.3c-0.6,0.6-1,1.3-1.3,2.1
			c-0.3,0.7-0.5,1.6-0.5,2.8c-0.1,1.2-0.1,1.6-0.1,4.8s0,3.6,0.1,4.8c0.1,1.2,0.3,2.1,0.5,2.8c0.3,0.8,0.7,1.4,1.3,2.1
			c0.6,0.6,1.3,1,2.1,1.3c0.7,0.3,1.6,0.5,2.8,0.5c1.2,0.1,1.6,0.1,4.8,0.1s3.6,0,4.8-0.1c1.2-0.1,2.1-0.3,2.8-0.5
			c0.8-0.3,1.4-0.7,2.1-1.3c0.6-0.6,1-1.3,1.3-2.1c0.3-0.7,0.5-1.6,0.5-2.8c0.1-1.2,0.1-1.6,0.1-4.8s0-3.6-0.1-4.8
			C36.5,19,36.3,18.1,36,17.4z M34.5,29.7c-0.1,1.1-0.2,1.8-0.4,2.2c-0.2,0.5-0.5,0.9-0.9,1.3c-0.4,0.4-0.8,0.7-1.3,0.9
			c-0.4,0.2-1,0.4-2.2,0.4c-1.2,0.1-1.6,0.1-4.7,0.1s-3.5,0-4.7-0.1c-1.1-0.1-1.8-0.2-2.2-0.4c-0.5-0.2-0.9-0.5-1.3-0.9
			c-0.4-0.4-0.7-0.8-0.9-1.3c-0.2-0.4-0.4-1-0.4-2.2c-0.1-1.2-0.1-1.6-0.1-4.7s0-3.5,0.1-4.7c0.1-1.1,0.2-1.8,0.4-2.2
			c0.2-0.5,0.5-0.9,0.9-1.3c0.4-0.4,0.8-0.7,1.3-0.9c0.4-0.2,1-0.4,2.2-0.4c1.2-0.1,1.6-0.1,4.7-0.1s3.5,0,4.7,0.1
			c1.1,0.1,1.8,0.2,2.2,0.4c0.5,0.2,0.9,0.5,1.3,0.9c0.4,0.4,0.7,0.8,0.9,1.3c0.2,0.4,0.4,1,0.4,2.2c0.1,1.2,0.1,1.6,0.1,4.7
			S34.5,28.5,34.5,29.7z"/>
		<path id="XMLID_145_" class="st3" d="M25,19c-3.3,0-6,2.7-6,6s2.7,6,6,6s6-2.7,6-6S28.3,19,25,19z M25,28.9
			c-2.1,0-3.9-1.7-3.9-3.9c0-2.1,1.7-3.9,3.9-3.9s3.9,1.7,3.9,3.9C28.9,27.1,27.1,28.9,25,28.9z"/>
		<circle id="XMLID_143_" class="st3" cx="31.2" cy="18.8" r="1.4"/>
	</g>
</g>
</svg>
