<svg id="Layer_1" data-name="Layer 1" xmlns="http://www.w3.org/2000/svg" viewBox="0 0 45.67 41.96"><defs><style>.cls-1{fill:#f2f2f3;}</style></defs><title>jclogo</title><path d="M23.79,4.65A.64.64,0,0,0,23.26,4a.73.73,0,0,0-.8.31L19.67,9a.58.58,0,0,0-.08.3V31.66l-7.76,4.63h0L5.26,40.2a.65.65,0,0,0-.23.22L2.25,45a.58.58,0,0,0,.14.76.75.75,0,0,0,.48.18.77.77,0,0,0,.39-.11l16-9.56h0l4.17-2.49a.61.61,0,0,0,.32-.52Z" transform="translate(-2.17 -4.02)"/><path class="cls-1" d="M23.18,33.17h0V5.63a.22.22,0,0,0-.06-.15A.22.22,0,0,0,23,5.41a.22.22,0,0,0-.22.23V33L3.24,44.67a.21.21,0,0,0,0,.29.24.24,0,0,0,.13.11.18.18,0,0,0,.15,0l19.64-11.7a.16.16,0,0,0,.08-.12S23.19,33.19,23.18,33.17Z" transform="translate(-2.17 -4.02)"/><path d="M35,13.16,41.52,17a.66.66,0,0,0,.31.09l5.39.26a.58.58,0,0,0,.61-.47.74.74,0,0,0-.07-.51.77.77,0,0,0-.28-.29l-16-9.52h0L27.3,4.13h0A.76.76,0,0,0,26.73,4a.64.64,0,0,0-.53.61V33.3a.61.61,0,0,0,.32.52l4.17,2.49h0l16,9.56a.77.77,0,0,0,.39.11.75.75,0,0,0,.48-.18.58.58,0,0,0,.14-.76L45,40.42a.65.65,0,0,0-.23-.22l-6.55-3.9h0l-7.76-4.63V10.43L35,13.16Zm11.66,3.17a.18.18,0,0,1,.09.13.24.24,0,0,1,0,.16.21.21,0,0,1-.28.09L28.57,6.08l-.49-.81Z" transform="translate(-2.17 -4.02)"/><path class="cls-1" d="M46.59,44.38l-2.15-3.59s0,0-.06,0v0L29.78,32v-22l-.45-.28V32.26L44,41s0,0,0,0l2.15,3.59a.22.22,0,0,0,.15.11h.06l.13,0a.25.25,0,0,0,.14-.15A.19.19,0,0,0,46.59,44.38Z" transform="translate(-2.17 -4.02)"/><rect class="cls-1" x="36.63" y="-0.7" width="0.45" height="22.91" rx="0.23" ry="0.23" transform="translate(6.59 32.9) rotate(-59.23)"/></svg>