<svg id="Layer_1" data-name="Layer 1" xmlns="http://www.w3.org/2000/svg" viewBox="0 0 41 35.12"><defs><style>.cls-1{stroke:#000;stroke-miterlimit:10;}</style></defs><title>logo</title><path class="cls-1" d="M21.51,28.51l0-16.84a.22.22,0,0,1,0-.1l1.91-3.51a.24.24,0,0,1,.44.11l.05,21.55a.22.22,0,0,1-.1.19L5.37,42A.23.23,0,0,1,5,41.73l1.9-3.48A.23.23,0,0,1,7,38.16l14.4-9.46A.22.22,0,0,0,21.51,28.51Z" transform="translate(-4.5 -7.44)"/><path class="cls-1" d="M28.49,28.51l0-16.84a.22.22,0,0,0,0-.1L26.59,8.06a.24.24,0,0,0-.44.11L26.1,29.72a.22.22,0,0,0,.1.19L44.63,42a.23.23,0,0,0,.34-.29l-1.9-3.48a.23.23,0,0,0-.07-.08L28.59,28.7A.22.22,0,0,1,28.49,28.51Z" transform="translate(-4.5 -7.44)"/></svg>